<svg width="20" height="24" viewBox="0 0 20 24" fill="none" xmlns="http://www.w3.org/2000/svg">
<path d="M19.1629 13.4466C19.2122 13.2179 19.1935 12.9798 19.1091 12.7616C19.0247 12.5434 18.8783 12.3546 18.688 12.2185L1.89758 0.225375C1.70864 0.0895142 1.48423 0.0116178 1.25175 0.00120118C1.01926 -0.00921549 0.788779 0.0482983 0.588445 0.166718C0.388112 0.285137 0.226601 0.459336 0.123641 0.668036C0.0206815 0.876736 -0.0192709 1.1109 0.00866429 1.34194L2.40729 21.7303C2.4349 21.964 2.53068 22.1845 2.68269 22.3642C2.83469 22.5439 3.03622 22.6749 3.26215 22.7408C3.48807 22.8068 3.72842 22.8049 3.95324 22.7352C4.17807 22.6655 4.37743 22.5313 4.52648 22.3491L8.85841 17.053L12.9085 23.6012L14.9485 22.3395L10.9224 15.8297L18.2251 14.3689C18.4542 14.3232 18.6651 14.2116 18.8317 14.0478C18.9983 13.884 19.1134 13.675 19.1629 13.4466Z" fill="black"/>
</svg>
