<svg width="15" height="8" viewBox="0 0 15 8" fill="none" xmlns="http://www.w3.org/2000/svg">
<path fill-rule="evenodd" clip-rule="evenodd" d="M6.68963 0.30542C6.9009 0.10986 7.18741 0 7.48616 0C7.7849 0 8.07141 0.10986 8.28269 0.30542L14.6561 6.20652C14.7637 6.30275 14.8495 6.41786 14.9085 6.54513C14.9676 6.67239 14.9987 6.80928 15 6.94778C15.0013 7.08629 14.9728 7.22365 14.9161 7.35185C14.8595 7.48005 14.7758 7.59652 14.67 7.69447C14.5642 7.79241 14.4384 7.86987 14.3 7.92232C14.1615 7.97477 14.0132 8.00116 13.8636 7.99996C13.714 7.99876 13.5661 7.96998 13.4287 7.91531C13.2912 7.86064 13.1669 7.78117 13.063 7.68154L7.48616 2.51794L1.90932 7.68154C1.69683 7.87156 1.41224 7.9767 1.11684 7.97432C0.821445 7.97195 0.538871 7.86224 0.329985 7.66883C0.121098 7.47542 0.00260925 7.21379 4.29153e-05 6.94028C-0.00252438 6.66677 0.111034 6.40326 0.316259 6.20652L6.68963 0.30542Z" fill="#1E1E1E"/>
</svg>
